{"accessors" : [{"bufferView" : 0, "byteOffset" : 0, "componentType" : 5123, "count" : 34542, "type" : "SCALAR", "max" : [8219], "min" : [0]}, {"bufferView" : 1, "byteOffset" : 0, "componentType" : 5126, "count" : 8220, "type" : "VEC3", "max" : [57.14999771118164, 57.149715423583984, 26.429737091064453], "min" : [-57.149715423583984, -57.14999771118164, -21.82699966430664], "name" : "POSITION"}, {"bufferView" : 1, "byteOffset" : 12, "componentType" : 5126, "count" : 8220, "type" : "VEC3", "max" : [1.0000044107437134, 1.0000044107437134, 1.0000044107437134], "min" : [-1.0000044107437134, -1.0000044107437134, -1.0000044107437134], "name" : "NORMAL"}, {"bufferView" : 0, "byteOffset" : 69084, "componentType" : 5123, "count" : 24012, "type" : "SCALAR", "max" : [5826], "min" : [0]}, {"bufferView" : 2, "byteOffset" : 0, "componentType" : 5126, "count" : 5827, "type" : "VEC3", "max" : [57.14999771118164, 57.14999771118164, 26.429737091064453], "min" : [-57.14999771118164, -57.14999771118164, -21.82699966430664], "name" : "POSITION"}, {"bufferView" : 2, "byteOffset" : 12, "componentType" : 5126, "count" : 5827, "type" : "VEC3", "max" : [1.0000044107437134, 1.0000044107437134, 1.0000044107437134], "min" : [-1.0000044107437134, -1.0000044107437134, -1.0000044107437134], "name" : "NORMAL"}, {"bufferView" : 0, "byteOffset" : 117108, "componentType" : 5123, "count" : 23136, "type" : "SCALAR", "max" : [4939], "min" : [0]}, {"bufferView" : 3, "byteOffset" : 0, "componentType" : 5126, "count" : 4940, "type" : "VEC3", "max" : [57.14999771118164, 57.14999771118164, 26.429737091064453], "min" : [-57.14999771118164, -57.14999771118164, -21.82699966430664], "name" : "POSITION"}, {"bufferView" : 3, "byteOffset" : 12, "componentType" : 5126, "count" : 4940, "type" : "VEC3", "max" : [1.0000044107437134, 1.0000044107437134, 1.0000044107437134], "min" : [-1.0000044107437134, -1.0000044107437134, -1.0000044107437134], "name" : "NORMAL"}], "asset" : {"generator" : "Aspose.3D 25.3.0", "version" : "2.0"}, "buffers" : [{"uri" : "data:application/octet-stream;base64,", "byteLength" : 619084}], "bufferViews" : [{"buffer" : 0, "byteOffset" : 0, "byteLength" : 163380, "target" : 34963}, {"buffer" : 0, "byteOffset" : 163384, "byteLength" : 197280, "byteStride" : 24, "target" : 34962}, {"buffer" : 0, "byteOffset" : 360668, "byteLength" : 139848, "byteStride" : 24, "target" : 34962}, {"buffer" : 0, "byteOffset" : 500520, "byteLength" : 118560, "byteStride" : 24, "target" : 34962}], "materials" : [{"name" : "", "pbrMetallicRoughness" : {"baseColorFactor" : [0.4000000059604645, 0.6000000238418579, 0.800000011920929, 1], "metallicFactor" : 1, "roughnessFactor" : 1}, "emissiveFactor" : [0, 0, 0], "alphaMode" : "OPAQUE", "doubleSided" : false}], "meshes" : [{"primitives" : [{"attributes" : {"POSITION" : 1, "NORMAL" : 2}, "indices" : 0, "material" : 0, "mode" : 4}], "name" : ""}, {"primitives" : [{"attributes" : {"POSITION" : 4, "NORMAL" : 5}, "indices" : 3, "material" : 0, "mode" : 4}], "name" : ""}, {"primitives" : [{"attributes" : {"POSITION" : 7, "NORMAL" : 8}, "indices" : 6, "material" : 0, "mode" : 4}], "name" : ""}], "nodes" : [{"mesh" : 0, "name" : ""}, {"mesh" : 1, "name" : ""}, {"mesh" : 2, "name" : ""}, {"children" : [0, 1, 2], "name" : "145275T013_002_MODEL_SOLIDS"}], "scene" : 0, "scenes" : [{"nodes" : [3]}]}